<mxfile host="app.diagrams.net" modified="2023-01-18T04:52:13.261Z" agent="5.0 (Macintosh; Intel Mac OS X 10_15_7) AppleWebKit/537.36 (KHTML, like Gecko) Chrome/109.0.0.0 Safari/537.36" version="20.8.5" etag="zhYToaIysFq7hn5LReZS" type="github">
  <diagram id="uG7nMegNJ6Ehwh9qvUP8" name="페이지-1">
    <mxGraphModel dx="1242" dy="739" grid="1" gridSize="10" guides="1" tooltips="1" connect="1" arrows="1" fold="1" page="1" pageScale="1" pageWidth="827" pageHeight="1169" math="0" shadow="0">
      <root>
        <object label="eduPost" style="shape=table;startSize=30;container=1;collapsible=1;childLayout=tableLayout;fixedRows=1;rowLines=0;fontStyle=1;align=center;resizeLast=1;" resizeLast="1" eLast="1" parent="1" vertex="1" x="340" y="580" width="180" height="270" as="geometry" id="Fn5RfGsv-nMHYgzgg0Gg-1">
          <mxRectangle x="230" y="180" width="70" height="30" as="alternateBounds" />
          <mxCell />
        </object>
      </root>
    </mxGraphModel>
  </diagram>
</mxfile>
